<?xml version="1.0" standalone="no"?>
<!DOCTYPE svg PUBLIC "-//W3C//DTD SVG 1.1//EN" "http://www.w3.org/Graphics/SVG/1.1/DTD/svg11.dtd">
<svg width="100px" height="100px" version="1.1" xmlns="http://www.w3.org/2000/svg" xmlns:xlink="http://www.w3.org/1999/xlink" xml:space="preserve" style="fill-rule:evenodd;clip-rule:evenodd;stroke-linejoin:round;stroke-miterlimit:1.41421;">
    <g>
        <path id="Layer1" d="M83.2409,25.7158L38.2509,2.52589C32.091,-0.72411 19.9411,5.54908 16.4509,11.0691C14.8876,13.5359 15.0009,15.3191 15.0009,16.3257L15.561,68.6958C15.591,69.8057 16.9909,71.3057 18.1911,72.0459C20.6911,73.5757 58.4909,97.1758 59.561,97.8457C60.1376,98.2058 60.821,98.3657 61.4909,98.3657C62.061,98.3657 62.6376,98.2459 63.1611,97.9859C64.2909,97.4258 65.0009,96.3457 65.0009,95.1658L65.0009,40.1558C65.0009,39.0125 64.331,37.9558 63.2409,37.3826L22.351,14.5525C22.811,13.6558 24.6276,11.7525 27.9709,10.0025C31.5009,8.15577 34.1376,8.85255 34.7409,9.0857C34.7409,9.0857 73.9909,30.0925 75.1911,30.7158C76.3876,31.3391 76.4111,31.4358 76.4111,32.5025C76.4111,33.5691 76.4111,84.6958 76.4111,84.6958C76.4111,87.3057 79.051,88.3657 80.9909,88.3657C82.9311,88.3657 85.0009,86.4658 85.0009,84.6958L85.0009,28.4924C85.0009,27.3491 84.331,26.2891 83.2409,25.7158Z" style="fill:rgb(123,12,157);fill-rule:nonzero;"/>
    </g>
</svg>
