<?xml version="1.0" standalone="no"?>
<!DOCTYPE svg PUBLIC "-//W3C//DTD SVG 1.1//EN" "http://www.w3.org/Graphics/SVG/1.1/DTD/svg11.dtd">
<svg width="53px" height="62px" version="1.1" xmlns="http://www.w3.org/2000/svg" xmlns:xlink="http://www.w3.org/1999/xlink" xml:space="preserve" style="fill-rule:evenodd;clip-rule:evenodd;stroke-miterlimit:1.41421;">
    <g>
        <g id="Layer1">
            <g>
                <path d="M24.8367,57.8533L25.3233,59.2633L24.33,59.2L24.8367,57.8533ZM18.18,55.3333C20.95,56.23 23.8033,56.7433 26.4133,56.7433C29.03,56.7433 31.8733,56.23 34.6433,55.3333L34.6433,59.62C32.4433,60.6467 29.56,61.33 26.4133,61.33C23.2767,61.33 20.3933,60.6467 18.18,59.62L18.18,55.3333ZM29.46,58.2833C29.3767,57.5767 28.79,57.2133 28.08,57.2467C27.1167,57.31 26.56,58.1133 26.56,59.06C26.58,59.98 27.1667,60.73 28.13,60.6633C28.9133,60.62 29.45,60.0567 29.48,59.2633L28.9333,59.3067C28.89,59.7667 28.6167,60.1733 28.11,60.2067C27.42,60.25 27.1267,59.64 27.1267,59.02C27.1167,58.39 27.39,57.7567 28.08,57.7167C28.5567,57.6833 28.79,57.95 28.89,58.3133L29.46,58.2833ZM23.2933,60.4833L23.8833,60.5133L24.1867,59.6833L25.4633,59.7767L25.79,60.6633L26.3767,60.7067L25.13,57.3533L24.5433,57.31L23.2933,60.4833ZM35.6333,53.33L35.6333,53.8067L36.78,53.33L38.1267,53.33C37.08,53.8 36.0133,54.22 34.94,54.5833L32.93,53.33L35.6333,53.33ZM15.8333,53.33L15.9533,53.38L15.97,53.33L17.4633,53.33L17.6667,54.0067L18.2233,54.2433L17.94,53.33L19.8933,53.33L17.8867,54.5833C16.8133,54.22 15.75,53.8 14.7033,53.33L15.8333,53.33Z" style="fill:rgb(184,155,55);"/>
            </g>
            <g>
                <path d="M16.8167,51.05L17.24,52.5667L16.38,52.2033L16.8167,51.05ZM14.6767,52.8L15.2033,53.0467L15.2033,49.9067L14.6767,49.65L14.6767,52.8ZM12.06,48.7967L12.87,49.21L12.87,51.8933L13.3967,52.2033L13.3967,49.5233L14.24,49.9367L14.24,49.4467L12.06,48.3233L12.06,48.7967ZM9.45333,49.9933L9.92,50.29L9.92,47.92L11.0967,51.0067L11.5733,51.2967L11.5733,48.0467L11.1567,47.8L11.1567,50.1733L9.97,47.1067L9.45333,46.7967L9.45333,49.9933ZM7.11,48.4333L8.94667,49.6933L8.94667,49.2L7.54667,48.25L7.54667,47.31L8.83667,48.1633L8.83667,47.7067L7.54667,46.8533L7.54667,46.0067L8.92667,46.9467L8.92667,46.4567L7.11,45.25L7.11,48.4333ZM6.21,47.74L6.66667,48.06L6.66667,44.92L6.21,44.5967L6.21,47.74ZM5.74333,45.08C5.69333,44.3733 5.30667,43.7 4.79,43.3667C4.11,42.93 3.71333,43.4333 3.71333,44.34C3.71333,45.26 4.11,46.2867 4.79,46.7233C5.33667,47.0733 5.72333,46.7967 5.74333,46.05L5.35667,45.7933C5.33667,46.2433 5.13333,46.5 4.79,46.2533C4.31333,45.9433 4.1,45.2067 4.1,44.5967C4.1,43.99 4.31333,43.5067 4.79,43.83C5.11333,44.04 5.27667,44.4133 5.34667,44.8333L5.74333,45.08ZM1.71667,42.95C1.72667,43.7433 2.12333,44.3933 2.61,44.7467C3.02667,45.0467 3.44,45.0667 3.44,44.3533C3.44,44.02 3.3,43.55 3.02667,43.24C2.91333,43.1033 2.44667,42.59 2.41667,42.5367C2.27667,42.3633 2.17333,42.16 2.17333,41.9367C2.17333,41.6267 2.37667,41.6933 2.56,41.7967C2.81333,41.99 2.98333,42.28 3.00667,42.7167L3.37,42.9733C3.37,42.31 3.00667,41.6933 2.56,41.36C2.17333,41.0833 1.8,41.1133 1.8,41.7333C1.8,42.0767 1.91,42.4933 2.26333,42.8867L2.89333,43.6133C2.98333,43.73 3.06667,43.89 3.06667,44.1367C3.06667,44.3933 2.93333,44.5433 2.62,44.2867C2.32667,44.0833 2.08333,43.72 2.08333,43.22L1.71667,42.95ZM46.95,44.8433L47.67,44.2767C47.9033,44.0933 48.1067,43.99 48.1067,44.3933C48.1067,44.7167 47.9533,45.0033 47.68,45.25L46.95,45.8067L46.95,44.8433ZM44.81,46.2867C45.3067,45.7833 45.61,46.0833 45.7133,46.5933C45.8033,47.0967 45.6833,47.8233 45.1767,48.3233C44.6467,48.8267 44.3433,48.5267 44.2633,47.9933C44.1633,47.4933 44.2833,46.7867 44.81,46.2867ZM39.4367,49.5133L39.9033,50.6867L39.02,51.0933L39.4367,49.5133ZM41.77,49.4567L42.62,48.9667C42.9033,48.7967 43.0867,48.87 43.0867,49.19C43.0867,49.5 42.9033,49.79 42.62,49.95L41.77,50.45L41.77,49.4567ZM41.77,48.1767L42.56,47.7067C42.8133,47.5567 42.9667,47.5967 42.9667,47.92C42.9667,48.1967 42.7833,48.4667 42.56,48.6033L41.77,49.05L41.77,48.1767ZM49,45.6967L50.62,44.18L50.62,43.7L49.3933,44.8533L49.3933,43.9567L50.51,42.92L50.51,42.48L49.3933,43.5167L49.3933,42.7167L50.59,41.5733L50.59,41.1133L49,42.6L49,45.6967ZM46.5033,47.75L46.95,47.3967L46.95,46.1267L47.61,45.59C48.0133,45.2833 48.1067,45.4433 48.1067,46.0167C48.1067,46.1567 48.1067,46.34 48.1767,46.4233L48.6533,46.05C48.5633,45.9967 48.5233,45.6967 48.5233,45.3333C48.5233,44.8433 48.3,44.8967 48.1467,44.9933C48.2267,44.8867 48.5633,44.4467 48.5633,43.87C48.5633,43.3367 48.2767,43.2633 47.72,43.7L46.5033,44.6833L46.5033,47.75ZM44.72,45.89C44,46.5933 43.7067,47.6533 43.8467,48.4233C43.98,49.19 44.5267,49.4033 45.2367,48.7C45.9567,47.9933 46.28,46.9467 46.14,46.2C45.9967,45.42 45.45,45.1967 44.72,45.89ZM38.11,52.8333L38.6667,52.5667L38.91,51.5933L40.0667,51.05L40.41,51.7333L40.9267,51.4867L39.63,48.86L39.1033,49.1067L38.11,52.8333ZM41.2833,51.2L42.55,50.45C43.28,50.0567 43.5733,49.48 43.5733,48.9667C43.5733,48.54 43.38,48.3467 43.0467,48.4533C43.3,48.1633 43.4433,47.8433 43.4433,47.5367C43.4433,47 43.1167,46.9367 42.62,47.2167L41.2833,47.9933L41.2833,51.2ZM32.93,53.33L30.36,51.73C37.5567,50.1767 47.74,44.7333 52.2367,38.2433L52.2367,43.3C49.1033,46.7567 43.8833,50.7567 38.1267,53.33L36.78,53.33L37.7733,52.92L37.7733,52.4267L36.17,53.09L36.17,50.3767L35.6333,50.6033L35.6333,53.33L32.93,53.33ZM15.97,53.33L16.2467,52.59L17.3833,53.06L17.4633,53.33L15.97,53.33ZM14.7033,53.33C8.95667,50.7567 3.73,46.7567 0.586667,43.3L0.586667,38.2433C5.08333,44.7333 15.2667,50.1767 22.4633,51.73L19.8933,53.33L17.94,53.33L17.08,50.57L16.5633,50.3667L15.3867,53.1533L15.8333,53.33L14.7033,53.33Z" style="fill:rgb(184,155,55);"/>
            </g>
            <g>
                <path d="M24.8367,57.8533L25.3233,59.2633L24.33,59.2L24.8367,57.8533ZM18.18,55.3333C20.95,56.23 23.8033,56.7433 26.4133,56.7433C29.03,56.7433 31.8733,56.23 34.6433,55.3333L34.6433,59.62C32.4433,60.6467 29.56,61.33 26.4133,61.33C23.2767,61.33 20.3933,60.6467 18.18,59.62L18.18,55.3333ZM29.46,58.2833C29.3767,57.5767 28.79,57.2133 28.08,57.2467C27.1167,57.31 26.56,58.1133 26.56,59.06C26.58,59.98 27.1667,60.73 28.13,60.6633C28.9133,60.62 29.45,60.0567 29.48,59.2633L28.9333,59.3067C28.89,59.7667 28.6167,60.1733 28.11,60.2067C27.42,60.25 27.1267,59.64 27.1267,59.02C27.1167,58.39 27.39,57.7567 28.08,57.7167C28.5567,57.6833 28.79,57.95 28.89,58.3133L29.46,58.2833ZM23.2933,60.4833L23.8833,60.5133L24.1867,59.6833L25.4633,59.7767L25.79,60.6633L26.3767,60.7067L25.13,57.3533L24.5433,57.31L23.2933,60.4833ZM16.8167,51.05L17.24,52.5667L16.38,52.2033L16.8167,51.05ZM0.586667,40.82L0.586667,38.2433C5.08333,44.7333 15.2667,50.1767 22.4633,51.73L17.8867,54.5833C10.93,52.23 4.30333,47.3867 0.586667,43.3L0.586667,40.82ZM14.6767,52.8L15.2033,53.0467L15.2033,49.9067L14.6767,49.65L14.6767,52.8ZM12.06,48.7967L12.87,49.21L12.87,51.8933L13.3967,52.2033L13.3967,49.5233L14.24,49.9367L14.24,49.4467L12.06,48.3233L12.06,48.7967ZM9.45333,49.9933L9.92,50.29L9.92,47.92L11.0967,51.0067L11.5733,51.2967L11.5733,48.0467L11.1567,47.8L11.1567,50.1733L9.97,47.1067L9.45333,46.7967L9.45333,49.9933ZM7.11,48.4333L8.94667,49.6933L8.94667,49.2L7.54667,48.25L7.54667,47.31L8.83667,48.1633L8.83667,47.7067L7.54667,46.8533L7.54667,46.0067L8.92667,46.9467L8.92667,46.4567L7.11,45.25L7.11,48.4333ZM6.21,47.74L6.66667,48.06L6.66667,44.92L6.21,44.5967L6.21,47.74ZM5.74333,45.08C5.69333,44.3733 5.30667,43.7 4.79,43.3667C4.11,42.93 3.71333,43.4333 3.71333,44.34C3.71333,45.26 4.11,46.2867 4.79,46.7233C5.33667,47.0733 5.72333,46.7967 5.74333,46.05L5.35667,45.7933C5.33667,46.2433 5.13333,46.5 4.79,46.2533C4.31333,45.9433 4.1,45.2067 4.1,44.5967C4.1,43.99 4.31333,43.5067 4.79,43.83C5.11333,44.04 5.27667,44.4133 5.34667,44.8333L5.74333,45.08ZM1.71667,42.95C1.72667,43.7433 2.12333,44.3933 2.61,44.7467C3.02667,45.0467 3.44,45.0667 3.44,44.3533C3.44,44.02 3.3,43.55 3.02667,43.24C2.91333,43.1033 2.44667,42.59 2.41667,42.5367C2.27667,42.3633 2.17333,42.16 2.17333,41.9367C2.17333,41.6267 2.37667,41.6933 2.56,41.7967C2.81333,41.99 2.98333,42.28 3.00667,42.7167L3.37,42.9733C3.37,42.31 3.00667,41.6933 2.56,41.36C2.17333,41.0833 1.8,41.1133 1.8,41.7333C1.8,42.0767 1.91,42.4933 2.26333,42.8867L2.89333,43.6133C2.98333,43.73 3.06667,43.89 3.06667,44.1367C3.06667,44.3933 2.93333,44.5433 2.62,44.2867C2.32667,44.0833 2.08333,43.72 2.08333,43.22L1.71667,42.95ZM15.3867,53.1533L15.9533,53.38L16.2467,52.59L17.3833,53.06L17.6667,54.0067L18.2233,54.2433L17.08,50.57L16.5633,50.3667L15.3867,53.1533ZM46.95,44.8433L47.67,44.2767C47.9033,44.0933 48.1067,43.99 48.1067,44.3933C48.1067,44.7167 47.9533,45.0033 47.68,45.25L46.95,45.8067L46.95,44.8433ZM44.81,46.2867C45.3067,45.7833 45.61,46.0833 45.7133,46.5933C45.8033,47.0967 45.6833,47.8233 45.1767,48.3233C44.6467,48.8267 44.3433,48.5267 44.2633,47.9933C44.1633,47.4933 44.2833,46.7867 44.81,46.2867ZM39.4367,49.5133L39.9033,50.6867L39.02,51.0933L39.4367,49.5133ZM41.77,49.4567L42.62,48.9667C42.9033,48.7967 43.0867,48.87 43.0867,49.19C43.0867,49.5 42.9033,49.79 42.62,49.95L41.77,50.45L41.77,49.4567ZM41.77,48.1767L42.56,47.7067C42.8133,47.5567 42.9667,47.5967 42.9667,47.92C42.9667,48.1967 42.7833,48.4667 42.56,48.6033L41.77,49.05L41.77,48.1767ZM52.2367,43.3C48.53,47.3867 41.9133,52.23 34.94,54.5833L30.36,51.73C37.5567,50.1767 47.74,44.7333 52.2367,38.2433L52.2367,43.3ZM49,45.6967L50.62,44.18L50.62,43.7L49.3933,44.8533L49.3933,43.9567L50.51,42.92L50.51,42.48L49.3933,43.5167L49.3933,42.7167L50.59,41.5733L50.59,41.1133L49,42.6L49,45.6967ZM35.6333,53.8067L37.7733,52.92L37.7733,52.4267L36.17,53.09L36.17,50.3767L35.6333,50.6033L35.6333,53.8067ZM46.5033,47.75L46.95,47.3967L46.95,46.1267L47.61,45.59C48.0133,45.2833 48.1067,45.4433 48.1067,46.0167C48.1067,46.1567 48.1067,46.34 48.1767,46.4233L48.6533,46.05C48.5633,45.9967 48.5233,45.6967 48.5233,45.3333C48.5233,44.8433 48.3,44.8967 48.1467,44.9933C48.2267,44.8867 48.5633,44.4467 48.5633,43.87C48.5633,43.3367 48.2767,43.2633 47.72,43.7L46.5033,44.6833L46.5033,47.75ZM44.72,45.89C44,46.5933 43.7067,47.6533 43.8467,48.4233C43.98,49.19 44.5267,49.4033 45.2367,48.7C45.9567,47.9933 46.28,46.9467 46.14,46.2C45.9967,45.42 45.45,45.1967 44.72,45.89ZM38.11,52.8333L38.6667,52.5667L38.91,51.5933L40.0667,51.05L40.41,51.7333L40.9267,51.4867L39.63,48.86L39.1033,49.1067L38.11,52.8333ZM41.2833,51.2L42.55,50.45C43.28,50.0567 43.5733,49.48 43.5733,48.9667C43.5733,48.54 43.38,48.3467 43.0467,48.4533C43.3,48.1633 43.4433,47.8433 43.4433,47.5367C43.4433,47 43.1167,46.9367 42.62,47.2167L41.2833,47.9933L41.2833,51.2Z" style="fill:none;stroke-width:0.13px;stroke:rgb(184,155,55);"/>
            </g>
            <g>
                <path d="M46.6733,43.0133L46.6733,38.67L42.5833,44.9467C42.2367,45.4833 42.01,45.9233 41.8667,46.3833C43.5533,45.3867 45.1667,44.2667 46.6733,43.0133Z" style="fill:rgb(31,79,162);fill-rule:nonzero;"/>
            </g>
            <g>
                <path d="M46.6733,43.0133L46.6733,38.67L42.5833,44.9467C42.2367,45.4833 42.01,45.9233 41.8667,46.3833C43.5533,45.3867 45.1667,44.2667 46.6733,43.0133Z" style="fill:none;stroke-width:0.33px;stroke:rgb(31,79,162);"/>
            </g>
            <g>
                <path d="M29.9233,55.8767C31.4267,55.6533 32.41,55.3533 34.0767,54.82L29.9233,52.2L29.9233,55.8767Z" style="fill:rgb(31,79,162);fill-rule:nonzero;"/>
            </g>
            <g>
                <path d="M29.9233,55.8767C31.4267,55.6533 32.41,55.3533 34.0767,54.82L29.9233,52.2L29.9233,55.8767Z" style="fill:none;stroke-width:0.33px;stroke:rgb(31,79,162);"/>
            </g>
            <g>
                <path d="M22.92,52.2L18.7567,54.82C20.4233,55.3533 21.4067,55.6533 22.92,55.8767L22.92,52.2Z" style="fill:rgb(31,79,162);fill-rule:nonzero;"/>
            </g>
            <g>
                <path d="M22.92,52.2L18.7567,54.82C20.4233,55.3533 21.4067,55.6533 22.92,55.8767L22.92,52.2Z" style="fill:none;stroke-width:0.33px;stroke:rgb(31,79,162);"/>
            </g>
            <g>
                <path d="M46.6833,49.0333L46.0433,49.4933C44.6633,50.47 43.19,51.4067 41.66,52.2633L41.66,54.0367C41.66,54.0367 44.43,52.23 45.7,51.3233C46.46,50.7667 46.6333,50.2633 46.6733,49.4933L46.6833,49.0333Z" style="fill:rgb(31,79,162);fill-rule:nonzero;"/>
            </g>
            <g>
                <path d="M46.6833,49.0333L46.0433,49.4933C44.6633,50.47 43.19,51.4067 41.66,52.2633L41.66,54.0367C41.66,54.0367 44.43,52.23 45.7,51.3233C46.46,50.7667 46.6333,50.2633 46.6733,49.4933L46.6833,49.0333Z" style="fill:none;stroke-width:0.33px;stroke:rgb(31,79,162);"/>
            </g>
            <g>
                <path d="M5.57,42.5133L5.57,37.74L1.13667,37.75C2.44,39.5067 3.93667,41.09 5.57,42.5133Z" style="fill:rgb(31,79,162);fill-rule:nonzero;"/>
            </g>
            <g>
                <path d="M5.57,42.5133L5.57,37.74L1.13667,37.75C2.44,39.5067 3.93667,41.09 5.57,42.5133Z" style="fill:none;stroke-width:0.33px;stroke:rgb(31,79,162);"/>
            </g>
            <g>
                <path d="M10.97,46.3867C10.8267,45.9233 10.6033,45.4833 10.26,44.9467L6.16,38.67L6.16,43.0167C7.66667,44.27 9.28333,45.39 10.97,46.3867Z" style="fill:rgb(31,79,162);fill-rule:nonzero;"/>
            </g>
            <g>
                <path d="M10.97,46.3867C10.8267,45.9233 10.6033,45.4833 10.26,44.9467L6.16,38.67L6.16,43.0167C7.66667,44.27 9.28333,45.39 10.97,46.3867Z" style="fill:none;stroke-width:0.33px;stroke:rgb(31,79,162);"/>
            </g>
            <g>
                <path d="M6.15,49.0267L6.17,49.4933C6.19,50.2633 6.37333,50.7667 7.13333,51.3233C8.39333,52.23 11.1767,54.0367 11.1767,54.0367L11.1767,52.2567C9.64667,51.4033 8.17667,50.4667 6.8,49.4933L6.15,49.0267Z" style="fill:rgb(31,79,162);fill-rule:nonzero;"/>
            </g>
            <g>
                <path d="M6.15,49.0267L6.17,49.4933C6.19,50.2633 6.37333,50.7667 7.13333,51.3233C8.39333,52.23 11.1767,54.0367 11.1767,54.0367L11.1767,52.2567C9.64667,51.4033 8.17667,50.4667 6.8,49.4933L6.15,49.0267Z" style="fill:none;stroke-width:0.33px;stroke:rgb(31,79,162);"/>
            </g>
            <g>
                <path d="M47.2533,37.74L47.2533,42.52C48.89,41.0933 50.3867,39.5067 51.7,37.75L47.2533,37.74Z" style="fill:rgb(31,79,162);fill-rule:nonzero;"/>
            </g>
            <g>
                <path d="M47.2533,37.74L47.2533,42.52C48.89,41.0933 50.3867,39.5067 51.7,37.75L47.2533,37.74Z" style="fill:none;stroke-width:0.33px;stroke:rgb(31,79,162);"/>
            </g>
            <g>
                <path d="M31.0333,16.1267C31.5533,11.7533 33.1767,8.87666 36.5733,6.81333L16.26,6.81333C19.6433,8.87333 21.2667,11.7433 21.8767,16.11C22.5267,15.9867 23.2633,15.8067 24.1567,15.8067C25.2733,15.8067 26.0567,16.1933 26.4133,16.91C26.6867,16.1933 27.55,15.8067 28.6767,15.8067C29.6067,15.8067 30.3633,16.0033 31.0333,16.1267Z" style="fill:rgb(31,79,162);fill-rule:nonzero;"/>
            </g>
            <g>
                <path d="M31.0333,16.1267C31.5533,11.7533 33.1767,8.87666 36.5733,6.81333L16.26,6.81333C19.6433,8.87333 21.2667,11.7433 21.8767,16.11C22.5267,15.9867 23.2633,15.8067 24.1567,15.8067C25.2733,15.8067 26.0567,16.1933 26.4133,16.91C26.6867,16.1933 27.55,15.8067 28.6767,15.8067C29.6067,15.8067 30.3633,16.0033 31.0333,16.1267Z" style="fill:none;stroke-width:0.23px;stroke:rgb(31,79,162);"/>
            </g>
            <g>
                <path d="M33.8,26.7167C36.79,27.5933 38.91,29.29 40.5233,32.2133L40.5233,10.8133C38.8167,13.9167 36.5333,15.61 33.3267,16.4233L33.8633,16.79L33.8633,18.5567L36.5533,18.5567C37.2533,18.5567 37.71,18.6933 37.71,19.2933C37.71,20 37.3533,20.2233 36.7067,20.2233L33.8633,20.2233L33.8633,23.09L36.5533,23.09C37.2533,23.09 37.71,23.2167 37.71,23.8267C37.71,24.5233 37.3533,24.7467 36.7067,24.7467L33.8633,24.7467L33.8633,26.7167L33.8,26.7167Z" style="fill:rgb(31,79,162);fill-rule:nonzero;"/>
            </g>
            <g>
                <path d="M33.8,26.7167C36.79,27.5933 38.91,29.29 40.5233,32.2133L40.5233,10.8133C38.8167,13.9167 36.5333,15.61 33.3267,16.4233L33.8633,16.79L33.8633,18.5567L36.5533,18.5567C37.2533,18.5567 37.71,18.6933 37.71,19.2933C37.71,20 37.3533,20.2233 36.7067,20.2233L33.8633,20.2233L33.8633,23.09L36.5533,23.09C37.2533,23.09 37.71,23.2167 37.71,23.8267C37.71,24.5233 37.3533,24.7467 36.7067,24.7467L33.8633,24.7467L33.8633,26.7167L33.8,26.7167Z" style="fill:none;stroke-width:0.23px;stroke:rgb(31,79,162);"/>
            </g>
            <g>
                <path d="M22.32,26.7167L21.93,26.7633C21.36,31.36 19.7433,34.38 16.26,36.51L36.5733,36.51C33.0833,34.38 31.4633,31.3633 30.9833,26.7733L30.5233,26.7167L28.6367,26.7167C27.69,26.7167 27.8033,27.1967 26.4133,27.1967C25.02,27.1967 25.1433,26.7167 24.22,26.7167L22.32,26.7167Z" style="fill:rgb(31,79,162);fill-rule:nonzero;"/>
            </g>
            <g>
                <path d="M22.32,26.7167L21.93,26.7633C21.36,31.36 19.7433,34.38 16.26,36.51L36.5733,36.51C33.0833,34.38 31.4633,31.3633 30.9833,26.7733L30.5233,26.7167L28.6367,26.7167C27.69,26.7167 27.8033,27.1967 26.4133,27.1967C25.02,27.1967 25.1433,26.7167 24.22,26.7167L22.32,26.7167Z" style="fill:none;stroke-width:0.23px;stroke:rgb(31,79,162);"/>
            </g>
            <g>
                <path d="M15.63,23.55L16.5533,23.55C16.5533,23.25 16.3333,23.0267 16.0567,23.0267C15.7833,23.0267 15.63,23.25 15.63,23.55ZM16.5533,19.68L15.63,19.6467C15.63,19.9667 15.7833,20.19 16.0567,20.19C16.3333,20.19 16.5533,19.9667 16.5533,19.68ZM16.5533,19.0167C16.5533,18.7367 16.3333,18.49 16.0567,18.49C15.7833,18.49 15.63,18.7367 15.63,19.0167L16.5533,19.0167ZM19.0333,24.7467L16.89,24.7467C16.7467,25.0367 16.4033,25.23 16.0567,25.23C15.56,25.23 15.1233,24.79 15.1233,24.2567C14.8,24.17 14.6767,24.03 14.6767,23.86C14.6767,23.69 14.8,23.55 14.96,23.55C15.1233,22.94 15.56,22.5033 16.0567,22.5033C16.4333,22.5033 16.7567,22.7467 16.89,23.09L19.0233,23.09L19,20.2233L16.89,20.2233C16.7467,20.49 16.4033,20.6933 16.0567,20.6933C15.56,20.6933 15.1233,20.2667 15.1233,19.7433C14.8,19.6467 14.6767,19.4967 14.6767,19.3467C14.6767,19.1533 14.8,19.0167 14.96,19.0167C15.1233,18.4167 15.56,17.9767 16.0567,17.9767C16.4333,17.9767 16.7567,18.2133 16.89,18.5667L18.9867,18.5667L18.97,16.79L19.5433,16.39C16.2567,15.5667 14.0133,13.8767 12.3233,10.8133L12.3233,32.2133C13.94,29.29 16.06,27.5933 19.05,26.7167L19.0333,24.7467ZM16.5533,24.17L15.63,24.17C15.63,24.49 15.7833,24.7367 16.0567,24.7367C16.3333,24.7367 16.5533,24.49 16.5533,24.2033L16.5533,24.17Z" style="fill:rgb(31,79,162);"/>
            </g>
            <g>
                <path d="M15.63,23.55L16.5533,23.55C16.5533,23.25 16.3333,23.0267 16.0567,23.0267C15.7833,23.0267 15.63,23.25 15.63,23.55ZM16.5533,19.68L15.63,19.6467C15.63,19.9667 15.7833,20.19 16.0567,20.19C16.3333,20.19 16.5533,19.9667 16.5533,19.68ZM16.5533,19.0167C16.5533,18.7367 16.3333,18.49 16.0567,18.49C15.7833,18.49 15.63,18.7367 15.63,19.0167L16.5533,19.0167ZM19.0333,24.7467L16.89,24.7467C16.7467,25.0367 16.4033,25.23 16.0567,25.23C15.56,25.23 15.1233,24.79 15.1233,24.2567C14.8,24.17 14.6767,24.03 14.6767,23.86C14.6767,23.69 14.8,23.55 14.96,23.55C15.1233,22.94 15.56,22.5033 16.0567,22.5033C16.4333,22.5033 16.7567,22.7467 16.89,23.09L19.0233,23.09L19,20.2233L16.89,20.2233C16.7467,20.49 16.4033,20.6933 16.0567,20.6933C15.56,20.6933 15.1233,20.2667 15.1233,19.7433C14.8,19.6467 14.6767,19.4967 14.6767,19.3467C14.6767,19.1533 14.8,19.0167 14.96,19.0167C15.1233,18.4167 15.56,17.9767 16.0567,17.9767C16.4333,17.9767 16.7567,18.2133 16.89,18.5667L18.9867,18.5667L18.97,16.79L19.5433,16.39C16.2567,15.5667 14.0133,13.8767 12.3233,10.8133L12.3233,32.2133C13.94,29.29 16.06,27.5933 19.05,26.7167L19.0333,24.7467ZM16.5533,24.17L15.63,24.17C15.63,24.49 15.7833,24.7367 16.0567,24.7367C16.3333,24.7367 16.5533,24.49 16.5533,24.2033L16.5533,24.17Z" style="fill:none;stroke-width:0.23px;stroke:rgb(31,79,162);"/>
            </g>
            <g>
                <path d="M6.45333,25.4633C6.45333,35.7533 15.3167,45.6133 26.4133,48.84C37.5267,45.6133 46.39,35.7533 46.39,25.4633L46.39,0.619995L6.45333,0.619995L6.45333,25.4633ZM21.43,26.8367C16.4567,27.6133 13.46,29.82 11.7533,35.1833L11.7533,7.85C13.4533,13.1933 16.45,15.3467 21.3867,16.15C20.5133,11.0467 18.45,7.98333 13.45,6.19333L39.3733,6.19333C34.3867,7.98 32.3167,11.0433 31.54,16.14C36.44,15.3267 39.4067,13.17 41.1,7.85L41.1,35.1833C39.4033,29.85 36.4233,27.64 31.5,26.85C32.2367,32.1167 34.2833,35.31 39.3733,37.11L13.44,37.11C18.5433,35.3067 20.59,32.1133 21.43,26.8367Z" style="fill:rgb(184,155,55);"/>
            </g>
            <g>
                <path d="M6.45333,25.4633C6.45333,35.7533 15.3167,45.6133 26.4133,48.84C37.5267,45.6133 46.39,35.7533 46.39,25.4633L46.39,0.619995L6.45333,0.619995L6.45333,25.4633ZM21.43,26.8367C16.4567,27.6133 13.46,29.82 11.7533,35.1833L11.7533,7.85C13.4533,13.1933 16.45,15.3467 21.3867,16.15C20.5133,11.0467 18.45,7.98333 13.45,6.19333L39.3733,6.19333C34.3867,7.98 32.3167,11.0433 31.54,16.14C36.44,15.3267 39.4067,13.17 41.1,7.85L41.1,35.1833C39.4033,29.85 36.4233,27.64 31.5,26.85C32.2367,32.1167 34.2833,35.31 39.3733,37.11L13.44,37.11C18.5433,35.3067 20.59,32.1133 21.43,26.8367Z" style="fill:none;stroke-width:0.23px;stroke:rgb(184,155,55);"/>
            </g>
            <g>
                <path d="M14.6767,52.8L15.2033,53.0467L15.2033,49.9067L14.6767,49.65L14.6767,52.8ZM29.46,58.2833C29.3767,57.5767 28.79,57.2133 28.08,57.2467C27.1167,57.31 26.56,58.1133 26.56,59.06C26.58,59.98 27.1667,60.73 28.13,60.6633C28.9133,60.62 29.45,60.0567 29.48,59.2633L28.9333,59.3067C28.89,59.7667 28.6167,60.1733 28.11,60.2067C27.42,60.25 27.1267,59.64 27.1267,59.02C27.1167,58.39 27.39,57.7567 28.08,57.7167C28.5567,57.6833 28.79,57.95 28.89,58.3133L29.46,58.2833ZM23.2933,60.4833L23.8833,60.5133L24.1867,59.6833L25.4633,59.7767L25.79,60.6633L26.3767,60.7067L25.13,57.3533L24.5433,57.31L23.2933,60.4833ZM15.3867,53.1533L15.9533,53.38L16.2467,52.59L17.3833,53.06L17.6667,54.0067L18.2233,54.2433L17.08,50.57L16.5633,50.3667L15.3867,53.1533ZM12.06,48.7967L12.87,49.21L12.87,51.8933L13.3967,52.2033L13.3967,49.5233L14.24,49.9367L14.24,49.4467L12.06,48.3233L12.06,48.7967ZM9.45333,49.9933L9.92,50.29L9.92,47.92L11.0967,51.0067L11.5733,51.2967L11.5733,48.0467L11.1567,47.8L11.1567,50.1733L9.97,47.1067L9.45333,46.7967L9.45333,49.9933ZM7.11,48.4333L8.94667,49.6933L8.94667,49.2L7.54667,48.25L7.54667,47.31L8.83667,48.1633L8.83667,47.7067L7.54667,46.8533L7.54667,46.0067L8.92667,46.9467L8.92667,46.4567L7.11,45.25L7.11,48.4333ZM6.21,47.74L6.66667,48.06L6.66667,44.92L6.21,44.5967L6.21,47.74ZM5.74333,45.08C5.69333,44.3733 5.30667,43.7 4.79,43.3667C4.11,42.93 3.71333,43.4333 3.71333,44.34C3.71333,45.26 4.11,46.2867 4.79,46.7233C5.33667,47.0733 5.72333,46.7967 5.74333,46.05L5.35667,45.7933C5.33667,46.2433 5.13333,46.5 4.79,46.2533C4.31333,45.9433 4.1,45.2067 4.1,44.5967C4.1,43.99 4.31333,43.5067 4.79,43.83C5.11333,44.04 5.27667,44.4133 5.34667,44.8333L5.74333,45.08ZM1.71667,42.95C1.72667,43.7433 2.12333,44.3933 2.61,44.7467C3.02667,45.0467 3.44,45.0667 3.44,44.3533C3.44,44.02 3.3,43.55 3.02667,43.24C2.91333,43.1033 2.44667,42.59 2.41667,42.5367C2.27667,42.3633 2.17333,42.16 2.17333,41.9367C2.17333,41.6267 2.37667,41.6933 2.56,41.7967C2.81333,41.99 2.98333,42.28 3.00667,42.7167L3.37,42.9733C3.37,42.31 3.00667,41.6933 2.56,41.36C2.17333,41.0833 1.8,41.1133 1.8,41.7333C1.8,42.0767 1.91,42.4933 2.26333,42.8867L2.89333,43.6133C2.98333,43.73 3.06667,43.89 3.06667,44.1367C3.06667,44.3933 2.93333,44.5433 2.62,44.2867C2.32667,44.0833 2.08333,43.72 2.08333,43.22L1.71667,42.95ZM49,45.6967L50.62,44.18L50.62,43.7L49.3933,44.8533L49.3933,43.9567L50.51,42.92L50.51,42.48L49.3933,43.5167L49.3933,42.7167L50.59,41.5733L50.59,41.1133L49,42.6L49,45.6967ZM46.5033,47.75L46.95,47.3967L46.95,46.1267L47.61,45.59C48.0133,45.2833 48.1067,45.4433 48.1067,46.0167C48.1067,46.1567 48.1067,46.34 48.1767,46.4233L48.6533,46.05C48.5633,45.9967 48.5233,45.6967 48.5233,45.3333C48.5233,44.8433 48.3,44.8967 48.1467,44.9933C48.2267,44.8867 48.5633,44.4467 48.5633,43.87C48.5633,43.3367 48.2767,43.2633 47.72,43.7L46.5033,44.6833L46.5033,47.75ZM44.72,45.89C44,46.5933 43.7067,47.6533 43.8467,48.4233C43.98,49.19 44.5267,49.4033 45.2367,48.7C45.9567,47.9933 46.28,46.9467 46.14,46.2C45.9967,45.42 45.45,45.1967 44.72,45.89ZM35.6333,53.8067L37.7733,52.92L37.7733,52.4267L36.17,53.09L36.17,50.3767L35.6333,50.6033L35.6333,53.8067ZM38.11,52.8333L38.6667,52.5667L38.91,51.5933L40.0667,51.05L40.41,51.7333L40.9267,51.4867L39.63,48.86L39.1033,49.1067L38.11,52.8333ZM41.2833,51.2L42.55,50.45C43.28,50.0567 43.5733,49.48 43.5733,48.9667C43.5733,48.54 43.38,48.3467 43.0467,48.4533C43.3,48.1633 43.4433,47.8433 43.4433,47.5367C43.4433,47 43.1167,46.9367 42.62,47.2167L41.2833,47.9933L41.2833,51.2ZM24.8367,57.8533L25.3233,59.2633L24.33,59.2L24.8367,57.8533ZM16.8167,51.05L17.24,52.5667L16.38,52.2033L16.8167,51.05ZM46.95,44.8433L47.67,44.2767C47.9033,44.0933 48.1067,43.99 48.1067,44.3933C48.1067,44.7167 47.9533,45.0033 47.68,45.25L46.95,45.8067L46.95,44.8433ZM44.81,46.2867C45.3067,45.7833 45.61,46.0833 45.7133,46.5933C45.8033,47.0967 45.6833,47.8233 45.1767,48.3233C44.6467,48.8267 44.3433,48.5267 44.2633,47.9933C44.1633,47.4933 44.2833,46.7867 44.81,46.2867ZM39.4367,49.5133L39.9033,50.6867L39.02,51.0933L39.4367,49.5133ZM41.77,49.4567L42.62,48.9667C42.9033,48.7967 43.0867,48.87 43.0867,49.19C43.0867,49.5 42.9033,49.79 42.62,49.95L41.77,50.45L41.77,49.4567ZM41.77,48.1767L42.56,47.7067C42.8133,47.5567 42.9667,47.5967 42.9667,47.92C42.9667,48.1967 42.7833,48.4667 42.56,48.6033L41.77,49.05L41.77,48.1767Z" style="fill:black;"/>
            </g>
            <g>
                <path d="M46.6733,43.0133L46.6733,38.67L42.5833,44.9467C42.2367,45.4833 42.01,45.9233 41.8667,46.3833C43.5533,45.3867 45.1667,44.2667 46.6733,43.0133ZM41.2633,46.7333C41.3267,45.9567 41.6,45.31 42.1967,44.3067C43.06,42.8867 46.9567,37.11 46.9567,37.11L52.8367,37.11L52.8367,43.57C51.4033,45.17 49.49,46.9133 47.2833,48.5867C47.2833,48.5867 47.2833,49.3767 47.2633,49.4933C47.19,50.66 46.8267,51.2667 46.1767,51.73C45.2433,52.38 43.4133,53.7067 41.1,55.0333L41.1,52.5667C39.2033,53.59 37.2267,54.48 35.2333,55.15L35.2333,59.9933C32.7867,61.1267 30.0667,61.8667 26.4133,61.8667C22.7767,61.8667 20.0367,61.1267 17.6,59.9933L17.6,55.15C15.6033,54.4767 13.6233,53.5833 11.7233,52.5567L11.7233,55.0333C9.42,53.7067 7.60333,52.38 6.65667,51.73C6.00667,51.2667 5.63333,50.66 5.57,49.4933L5.56,48.5933C3.34,46.92 1.43333,45.17 0,43.57L0,37.11L5.88667,37.11C5.88667,37.11 9.78333,42.8867 10.6467,44.3067C11.2467,45.3233 11.5133,45.9767 11.63,46.77C13.4933,47.8233 15.4367,48.73 17.4067,49.4933C19.4167,50.2733 21.4567,50.9167 23.48,51.42L23.48,55.9433C24.4133,56.0267 25.65,56.1333 26.4133,56.1333C27.1733,56.1333 28.41,56.0267 29.3567,55.9433L29.3567,51.42C31.3767,50.9167 33.4167,50.2733 35.4267,49.4933C37.4167,48.72 39.38,47.8033 41.2633,46.7333ZM47.2533,37.74L47.2533,42.52C48.89,41.0933 50.3867,39.5067 51.7,37.75L47.2533,37.74ZM6.15,49.0267L6.17,49.4933C6.19,50.2633 6.37333,50.7667 7.13333,51.3233C8.39333,52.23 11.1767,54.0367 11.1767,54.0367L11.1767,52.2567C9.64667,51.4033 8.17667,50.4667 6.8,49.4933L6.15,49.0267ZM10.97,46.3867C10.8267,45.9233 10.6033,45.4833 10.26,44.9467L6.16,38.67L6.16,43.0167C7.66667,44.27 9.28333,45.39 10.97,46.3867ZM5.57,42.5133L5.57,37.74L1.13667,37.75C2.44,39.5067 3.93667,41.09 5.57,42.5133ZM46.6833,49.0333L46.0433,49.4933C44.6633,50.47 43.19,51.4067 41.66,52.2633L41.66,54.0367C41.66,54.0367 44.43,52.23 45.7,51.3233C46.46,50.7667 46.6333,50.2633 46.6733,49.4933L46.6833,49.0333ZM18.18,59.62C20.3933,60.6467 23.2767,61.33 26.4133,61.33C29.56,61.33 32.4433,60.6467 34.6433,59.62L34.6433,55.3333C31.8733,56.23 29.03,56.7433 26.4133,56.7433C23.8033,56.7433 20.95,56.23 18.18,55.3333L18.18,59.62ZM0.586667,43.3C4.30333,47.3867 10.93,52.23 17.8867,54.5833L22.4633,51.73C15.2667,50.1767 5.08333,44.7333 0.586667,38.2433L0.586667,43.3ZM22.92,52.2L18.7567,54.82C20.4233,55.3533 21.4067,55.6533 22.92,55.8767L22.92,52.2ZM29.9233,55.8767C31.4267,55.6533 32.41,55.3533 34.0767,54.82L29.9233,52.2L29.9233,55.8767ZM52.2367,38.2433C47.74,44.7333 37.5567,50.1767 30.36,51.73L34.94,54.5833C41.9133,52.23 48.53,47.3867 52.2367,43.3L52.2367,38.2433Z" style="fill:black;fill-rule:nonzero;"/>
            </g>
            <g>
                <path d="M46.9667,25.6133C46.9667,36.19 37.63,46.34 26.4133,49.4833C15.2167,46.34 5.87667,36.19 5.87667,25.6133L5.87667,0L46.9667,0L46.9667,25.6133ZM6.45333,25.4633C6.45333,35.7533 15.3167,45.6133 26.4133,48.84C37.5267,45.6133 46.39,35.7533 46.39,25.4633L46.39,0.619995L6.45333,0.619995L6.45333,25.4633Z" style="fill:black;fill-rule:nonzero;"/>
            </g>
            <g>
                <path d="M15.63,23.55L16.5533,23.55C16.5533,23.25 16.3333,23.0267 16.0567,23.0267C15.7833,23.0267 15.63,23.25 15.63,23.55ZM16.5533,24.17L15.63,24.17C15.63,24.49 15.7833,24.7367 16.0567,24.7367C16.3333,24.7367 16.5533,24.49 16.5533,24.2033L16.5533,24.17ZM19.0333,24.7467L16.89,24.7467C16.7467,25.0367 16.4033,25.23 16.0567,25.23C15.56,25.23 15.1233,24.79 15.1233,24.2567C14.8,24.17 14.6767,24.03 14.6767,23.86C14.6767,23.69 14.8,23.55 14.96,23.55C15.1233,22.94 15.56,22.5033 16.0567,22.5033C16.4333,22.5033 16.7567,22.7467 16.89,23.09L19.0233,23.09L19,20.2233L16.89,20.2233C16.7467,20.49 16.4033,20.6933 16.0567,20.6933C15.56,20.6933 15.1233,20.2667 15.1233,19.7433C14.8,19.6467 14.6767,19.4967 14.6767,19.3467C14.6767,19.1533 14.8,19.0167 14.96,19.0167C15.1233,18.4167 15.56,17.9767 16.0567,17.9767C16.4333,17.9767 16.7567,18.2133 16.89,18.5667L18.9867,18.5667L18.97,16.79L19.5433,16.39C16.2567,15.5667 14.0133,13.8767 12.3233,10.8133L12.3233,32.2133C13.94,29.29 16.06,27.5933 19.05,26.7167L19.0333,24.7467ZM22.32,26.7167L21.93,26.7633C21.36,31.36 19.7433,34.38 16.26,36.51L36.5733,36.51C33.0833,34.38 31.4633,31.3633 30.9833,26.7733L30.5233,26.7167L28.6367,26.7167C27.69,26.7167 27.8033,27.1967 26.4133,27.1967C25.02,27.1967 25.1433,26.7167 24.22,26.7167L22.32,26.7167ZM21.43,26.8367C16.4567,27.6133 13.46,29.82 11.7533,35.1833L11.7533,7.85C13.4533,13.1933 16.45,15.3467 21.3867,16.15C20.5133,11.0467 18.45,7.98333 13.45,6.19333L39.3733,6.19333C34.3867,7.98 32.3167,11.0433 31.54,16.14C36.44,15.3267 39.4067,13.17 41.1,7.85L41.1,35.1833C39.4033,29.85 36.4233,27.64 31.5,26.85C32.2367,32.1167 34.2833,35.31 39.3733,37.11L13.44,37.11C18.5433,35.3067 20.59,32.1133 21.43,26.8367ZM33.8,26.7167C36.79,27.5933 38.91,29.29 40.5233,32.2133L40.5233,10.8133C38.8167,13.9167 36.5333,15.61 33.3267,16.4233L33.8633,16.79L33.8633,18.5567L36.5533,18.5567C37.2533,18.5567 37.71,18.6933 37.71,19.2933C37.71,20 37.3533,20.2233 36.7067,20.2233L33.8633,20.2233L33.8633,23.09L36.5533,23.09C37.2533,23.09 37.71,23.2167 37.71,23.8267C37.71,24.5233 37.3533,24.7467 36.7067,24.7467L33.8633,24.7467L33.8633,26.7167L33.8,26.7167ZM31.0333,16.1267C31.5533,11.7533 33.1767,8.87666 36.5733,6.81333L16.26,6.81333C19.6433,8.87333 21.2667,11.7433 21.8767,16.11C22.5267,15.9867 23.2633,15.8067 24.1567,15.8067C25.2733,15.8067 26.0567,16.1933 26.4133,16.91C26.6867,16.1933 27.55,15.8067 28.6767,15.8067C29.6067,15.8067 30.3633,16.0033 31.0333,16.1267ZM16.5533,19.0167C16.5533,18.7367 16.3333,18.49 16.0567,18.49C15.7833,18.49 15.63,18.7367 15.63,19.0167L16.5533,19.0167ZM16.5533,19.68L15.63,19.6467C15.63,19.9667 15.7833,20.19 16.0567,20.19C16.3333,20.19 16.5533,19.9667 16.5533,19.68Z" style="fill:black;fill-rule:nonzero;"/>
            </g>
            <g>
                <path d="M32.1567,25.1C32.1567,25.1 30.6233,25.1 29.2533,25.1C27.8733,25.1 27.65,25.1533 26.6967,25.56C26.6967,25.56 26.6967,18.3433 26.6967,17.7967C26.6967,16.95 27.55,16.4367 28.6767,16.4367C30.34,16.4367 31.2333,16.9933 32.1567,16.8133L32.1567,25.1Z" style="fill:rgb(254,254,254);"/>
            </g>
            <g>
                <path d="M26.1167,25.56C25.1633,25.1767 24.95,25.1 23.58,25.1C22.22,25.1 20.6567,25.1 20.6567,25.1L20.6567,16.8133C21.6,16.9933 22.4933,16.4367 24.1567,16.4367C25.2733,16.4367 26.1167,16.95 26.1167,17.7967C26.1167,18.3433 26.1167,25.56 26.1167,25.56Z" style="fill:rgb(254,254,254);fill-rule:nonzero;"/>
            </g>
            <g>
                <path d="M26.4133,26.64C27.8033,26.64 27.69,26.1067 28.6133,26.1067L33.3033,26.1067L33.3033,17.2067L32.7567,16.8033L32.7567,25.6233C31.7733,25.6233 30.1067,25.6233 28.95,25.6233C27.2733,25.6233 27.8333,26.16 26.4133,26.16C25.1633,26.16 25.65,25.6233 23.8833,25.6233C22.7267,25.6233 21.0733,25.6233 20.0767,25.6233L20.0767,16.8033L19.52,17.2067L19.52,26.1067L24.22,26.1067C25.1433,26.1067 25.02,26.64 26.4133,26.64Z" style="fill:rgb(254,254,254);fill-rule:nonzero;"/>
            </g>
        </g>
    </g>
</svg>
