<?xml version="1.0" standalone="no"?>
<!DOCTYPE svg PUBLIC "-//W3C//DTD SVG 1.1//EN" "http://www.w3.org/Graphics/SVG/1.1/DTD/svg11.dtd">
<svg width="100px" height="100px" version="1.1" xmlns="http://www.w3.org/2000/svg" xmlns:xlink="http://www.w3.org/1999/xlink" xml:space="preserve" style="fill-rule:evenodd;clip-rule:evenodd;stroke-linejoin:round;stroke-miterlimit:1.41421;">
    <g>
        <g id="Layer1">
            <path d="M24.1096,48.5985C22.7978,50.463 19.96,48.4667 21.2719,46.6022C21.897,45.7156 22.7207,45.0059 23.6622,44.5178C25.6193,43.5022 27.9363,43.5207 29.88,44.5607C30.8363,45.0719 31.6674,45.8133 32.2852,46.7378C33.5519,48.6296 30.6726,50.557 29.4059,48.6667C29.1067,48.2178 28.7074,47.8607 28.2496,47.6163C27.3281,47.1237 26.177,47.12 25.2504,47.6007C24.803,47.8311 24.4096,48.1711 24.1096,48.5985Z" style="fill:rgb(123,12,157);"/>
            <path d="M38.5926,48.5985C37.2815,50.463 34.443,48.4667 35.7548,46.6022C36.3807,45.7156 37.2037,45.0059 38.1452,44.5178C40.1022,43.5022 42.42,43.5207 44.363,44.5607C45.32,45.0719 46.1504,45.8133 46.7681,46.7378C48.0348,48.6296 45.1556,50.557 43.8889,48.6667C43.5896,48.2178 43.1904,47.8607 42.7333,47.6163C41.8119,47.1237 40.66,47.12 39.7341,47.6007C39.2867,47.8311 38.8933,48.1711 38.5926,48.5985Z" style="fill:rgb(123,12,157);"/>
            <path d="M46.6852,59.8096C45.2615,61.8978 43.3689,63.5726 41.2,64.7326C38.983,65.9178 36.4867,66.5644 33.9126,66.5644C31.4311,66.5644 29.0237,65.8948 26.8719,64.7244C24.6644,63.5237 22.7311,61.7948 21.2704,59.7222C20.7193,58.9378 20.9081,57.8556 21.6911,57.3044C21.9956,57.0904 22.3437,56.9881 22.6889,56.9881L22.6889,56.9852L45.3281,56.9852C46.2881,56.9852 47.0659,57.7637 47.0659,58.7237C47.0659,59.1348 46.9237,59.5126 46.6852,59.8096Z" style="fill:rgb(123,12,157);"/>
            <path d="M79.2548,11.4859C78.7756,11.1385 78.2111,11.0504 77.6474,11.2326C65.3,15.2615 52.5933,15.3393 39.503,11.1985C38.9415,11.0215 38.3807,11.1133 37.9059,11.4607C37.4304,11.8096 37.1741,12.3163 37.1741,12.9052L37.1741,26.8104C29.883,27.1741 22.4689,26.1889 14.9296,23.8037C14.3674,23.6267 13.8074,23.7185 13.3311,24.0667C12.8556,24.4148 12.5993,24.9215 12.5993,25.5104L12.5993,56.3667C12.5993,68.143 22.2341,77.7778 34.0089,77.7778C42.8637,77.7778 50.5067,72.3296 53.7548,64.6193C55.3081,64.9807 56.923,65.1719 58.5837,65.1719C70.3585,65.1719 79.9933,55.5378 79.9933,43.7622L79.9933,12.9348C79.9933,12.343 79.7341,11.8333 79.2548,11.4859ZM51.943,56.3674C51.943,66.2252 43.8659,74.3007 34.0089,74.3007C24.1519,74.3007 16.0756,66.2252 16.0756,56.3674L16.0756,27.777C28.0304,31.1578 40.023,31.2681 51.943,27.8237ZM67.6881,48.3067C67.1481,49.0948 66.0726,49.2956 65.2852,48.7548C64.2985,48.0778 63.2074,47.5481 62.0474,47.1889C60.9185,46.8378 59.7185,46.6533 58.4867,46.6533C57.4385,46.6533 56.4081,46.7889 55.4185,47.0496L55.4185,43.4844C56.42,43.2807 57.4459,43.1756 58.4867,43.1756C60.0504,43.1756 61.5926,43.417 63.0652,43.8748C64.5467,44.3341 65.9541,45.0185 67.2407,45.9022C68.0274,46.443 68.2274,47.5185 67.6881,48.3067ZM71.3415,33.3067C70.7244,34.2319 69.8933,34.9733 68.9363,35.4844C67.9756,35.9985 66.897,36.2793 65.7911,36.2793C64.7096,36.2793 63.6585,36.0141 62.7193,35.5259C61.7778,35.0385 60.9541,34.3289 60.3289,33.4422C59.7785,32.6578 59.9667,31.5756 60.7496,31.0244C61.5341,30.4733 62.6163,30.6615 63.1674,31.4452C63.4674,31.8719 63.8615,32.2119 64.3081,32.4444C64.7556,32.6763 65.2622,32.8022 65.7911,32.8022C66.3356,32.8022 66.8556,32.6704 67.3081,32.4296C67.7644,32.1852 68.1637,31.8274 68.4637,31.3785C68.9963,30.5837 70.0726,30.3711 70.8667,30.903C71.6615,31.4356 71.8733,32.5111 71.3415,33.3067Z" style="fill:rgb(123,12,157);"/>
        </g>
    </g>
</svg>
