<?xml version="1.0" standalone="no"?>
<!DOCTYPE svg PUBLIC "-//W3C//DTD SVG 1.1//EN" "http://www.w3.org/Graphics/SVG/1.1/DTD/svg11.dtd">
<svg width="100px" height="100px" version="1.1" xmlns="http://www.w3.org/2000/svg" xmlns:xlink="http://www.w3.org/1999/xlink" xml:space="preserve" style="fill-rule:evenodd;clip-rule:evenodd;stroke-linejoin:round;stroke-miterlimit:1.41421;">
    <g>
        <g id="Layer1">
            <g>
                <path d="M50,32.42C54.4567,32.42 56.6867,30.2 56.6867,25.74C56.6867,21.23 54.4567,18.97 50,18.97C45.5433,18.97 43.3167,21.23 43.3167,25.74C43.3167,30.2 45.5433,32.42 50,32.42Z" style="fill:rgb(73,13,97);fill-rule:nonzero;"/>
            </g>
            <g>
                <path d="M59.8567,35L40.1434,35C39.2867,35 38.56,35.3 37.9567,35.9C37.3567,36.5 37.0567,37.22 37.0567,38.08L37.0567,57.71L42.5433,57.71L42.5433,81.03L57.4567,81.03L57.4567,57.71L62.9434,57.71L62.9434,38.08C62.9434,37.22 62.6267,36.5 62,35.9C61.3701,35.3 60.6567,35 59.8567,35Z" style="fill:rgb(73,13,97);fill-rule:nonzero;"/>
            </g>
            <g>
                <path d="M50,89.2C28.35,89.2 10.8,71.65 10.8,50C10.8,28.35 28.35,10.8 50,10.8C71.65,10.8 89.2,28.35 89.2,50C89.2,71.65 71.65,89.2 50,89.2ZM50,2C23.4901,2 2,23.49 2,50C2,76.51 23.4901,98 50,98C76.51,98 98,76.51 98,50C98,23.49 76.51,2 50,2Z" style="fill:rgb(73,13,97);fill-rule:nonzero;"/>
            </g>
        </g>
    </g>
</svg>
